<svg width="290" height="290" viewBox="0 0 290 290" fill="none" xmlns="http://www.w3.org/2000/svg">
<g clip-path="url(#clip0_1_11)">
<rect width="290" height="290" rx="145" fill="black"/>
<path d="M239.72 94.34C251.24 94.34 261.5 96.77 270.5 101.63C279.5 106.31 286.61 113.42 291.83 122.96C297.05 132.5 299.66 144.11 299.66 157.79V245H275.36V161.3C275.36 146.54 271.67 135.29 264.29 127.55C257.09 119.63 247.28 115.67 234.86 115.67C222.08 115.67 211.91 119.81 204.35 128.09C196.79 136.19 193.01 147.98 193.01 163.46V245H168.71V161.3C168.71 146.54 165.02 135.29 157.64 127.55C150.44 119.63 140.63 115.67 128.21 115.67C115.43 115.67 105.26 119.81 97.7 128.09C90.14 136.19 86.36 147.98 86.36 163.46V245H61.79V97.04H86.36V118.37C91.22 110.63 97.7 104.69 105.8 100.55C114.08 96.41 123.17 94.34 133.07 94.34C145.49 94.34 156.47 97.13 166.01 102.71C175.55 108.29 182.66 116.48 187.34 127.28C191.48 116.84 198.32 108.74 207.86 102.98C217.4 97.22 228.02 94.34 239.72 94.34Z" fill="white"/>
</g>
<defs>
<clipPath id="clip0_1_11">
<rect width="290" height="290" rx="145" fill="white"/>
</clipPath>
</defs>
</svg>
