<svg width="443" height="285" viewBox="0 0 443 285" fill="none" xmlns="http://www.w3.org/2000/svg">
<path d="M134.496 45.296L97.668 92.42L60.84 45.296H55.032V134H72.852V87.536L94.764 114.992H100.572L122.484 87.536V134H140.304V45.296H134.496ZM155.332 90.44C154.936 115.388 176.452 136.112 201.532 135.584C226.612 136.112 248.392 115.388 247.996 90.44C248.392 65.492 226.612 44.768 201.532 45.296C176.452 44.768 154.936 65.492 155.332 90.44ZM229.648 90.44C229.648 107.204 217.636 119.084 201.664 119.084C185.56 119.084 173.68 107.204 173.68 90.44C173.68 73.676 185.56 61.796 201.664 61.796C217.636 61.796 229.648 73.94 229.648 90.44ZM50.016 195.44C49.488 220.388 70.872 241.112 96.348 240.584C113.112 240.584 127.368 232.532 134.892 218.936L121.428 209.432C115.224 219.2 106.908 224.084 96.48 224.084C80.244 224.084 68.364 212.204 68.364 195.572C68.364 178.94 80.244 166.796 96.48 166.796C106.908 166.796 115.224 171.68 121.428 181.448L134.892 171.944C127.104 158.348 112.98 150.296 96.48 150.296C71.136 149.768 49.62 170.492 50.016 195.44ZM150.036 239H167.856V201.38H206.4V239H224.22V151.88H206.4V185.276H167.856V151.88H150.036V239ZM300.369 239H319.509L280.701 150.296H274.761L235.821 239H254.961L259.845 227.648H295.485L300.369 239ZM289.281 212.996H266.049L277.665 183.56L289.281 212.996Z" fill="black"/>
<rect x="13.5" y="13.5" width="416" height="258" stroke="black" stroke-width="27"/>
</svg>
